<svg width="22" height="21" viewBox="0 0 22 21" fill="none" xmlns="http://www.w3.org/2000/svg">
<path d="M10.6064 0C4.7628 0 0 4.7124 0 10.4942C0 16.2759 4.76178 20.9883 10.6064 20.9883C16.45 20.9883 21.2128 16.2769 21.2128 10.4942C21.2128 4.7124 16.45 0 10.6064 0ZM12.7273 6.2963H14.8481V9.44444H12.7273V6.2963ZM6.36364 6.2963H8.48451V9.44444H6.36364V6.2963ZM10.6064 16.7905C7.57273 16.7905 5.83367 14.692 5.51549 14.2719L7.2128 13.0127C7.34007 13.1809 8.54916 14.692 10.6064 14.692C10.8291 14.692 12.7591 14.6497 14 13.0127L15.6973 14.2719C13.8837 16.6645 11.1364 16.7905 10.6064 16.7905Z" fill="black"/>
</svg>
