<svg width="80" height="80" viewBox="0 0 80 80" fill="none" xmlns="http://www.w3.org/2000/svg">
<path d="M10.4763 67.07C15.5857 72.6208 22.2263 76.7184 29.7383 78.691C27.7188 75.5894 26.0391 71.6012 24.7266 67.07H10.4763Z" fill="#545454"/>
<path d="M50.8285 18.41H28.9695C27.7312 23.8514 26.9109 30.25 26.739 37.262H53.067C52.8873 30.2503 52.0707 23.852 50.8285 18.41Z" fill="#545454"/>
<path d="M39.8985 80C43.2266 80 46.7696 75.1094 49.3477 67.07H30.4497C33.0278 75.1091 36.5704 80 39.8985 80Z" fill="#545454"/>
<path d="M69.3205 67.07H55.0705C53.7619 71.6091 52.0822 75.5895 50.0588 78.691C57.5705 76.7183 64.2065 72.609 69.3205 67.07Z" fill="#545454"/>
<path d="M58.5464 37.262H79.7964C79.3277 30.3518 77.0972 23.922 73.5464 18.41H56.4294C57.6794 24.3202 58.3862 30.801 58.5464 37.262Z" fill="#545454"/>
<path d="M53.0703 42.738H26.7263C26.8982 49.7497 27.7146 56.148 28.9568 61.59H50.8278C52.07 56.1486 52.8867 49.75 53.0703 42.738Z" fill="#545454"/>
<path d="M79.7964 42.738H58.5464C58.3863 49.1989 57.6753 55.679 56.437 61.59H73.558C77.0971 56.0783 79.3276 49.649 79.7964 42.738Z" fill="#545454"/>
<path d="M29.7383 1.30902C22.2266 3.27782 15.5903 7.38712 10.4763 12.93H24.7263C26.0388 8.39882 27.7188 4.41052 29.7383 1.30902Z" fill="#545454"/>
<path d="M23.3675 18.41H6.25049C2.69969 23.9217 0.469288 30.351 0.000488281 37.262H21.2505C21.4106 30.8011 22.1175 24.321 23.3675 18.41Z" fill="#545454"/>
<path d="M39.8984 0C36.5703 0 33.0273 4.8906 30.4492 12.93H49.3472C46.7691 4.8909 43.2265 0 39.8984 0Z" fill="#545454"/>
<path d="M69.3203 12.93C64.2109 7.37922 57.5703 3.28162 50.0583 1.30902C52.0778 4.41062 53.7575 8.39882 55.07 12.93H69.3203Z" fill="#545454"/>
<path d="M23.3674 61.59C22.1291 55.6916 21.4065 49.199 21.258 42.738H0C0.46875 49.6482 2.6992 56.078 6.25 61.59H23.3674Z" fill="#545454"/>
</svg>
