<svg width="26" height="26" viewBox="0 0 26 26" fill="none" xmlns="http://www.w3.org/2000/svg">
<path d="M12.8792 0.00124435C5.78464 0.00124435 0 5.81996 0 12.9621C0 20.1031 5.7834 25.923 12.8792 25.923C19.9738 25.923 25.7584 20.1031 25.7584 12.9621C25.7584 5.81996 19.975 0 12.8792 0V0.00124435ZM14.1687 18.1465C14.1687 18.8623 13.5904 19.4432 12.8792 19.4432C12.168 19.4432 11.5897 18.8623 11.5897 18.1465V11.6654C11.5897 10.9496 12.168 10.3687 12.8792 10.3687C13.5904 10.3687 14.1687 10.9496 14.1687 11.6654V18.1465ZM12.8792 9.07449C12.168 9.07449 11.5897 8.49358 11.5897 7.77778C11.5897 7.06197 12.168 6.48107 12.8792 6.48107C13.5904 6.48107 14.1687 7.06197 14.1687 7.77778C14.1687 8.49358 13.5904 9.07449 12.8792 9.07449Z" fill="black"/>
</svg>
