<svg width="21" height="21" viewBox="0 0 21 21" fill="none" xmlns="http://www.w3.org/2000/svg">
<path fill-rule="evenodd" clip-rule="evenodd" d="M15.5679 5.74268C16.6648 6.27462 17.6811 6.76749 18.4067 7.2605C19.1414 7.75974 20.1865 8.66167 20.1881 10.1725C20.1898 11.6833 19.1467 12.5875 18.413 13.0884C17.6886 13.583 16.6733 14.078 15.5776 14.6124L5.8734 19.3465C5.20397 19.6733 4.51527 20.0096 3.92929 20.1958C3.31854 20.3898 2.17491 20.6343 1.12786 19.8534C0.0808234 19.0725 -0.0109367 17.9067 0.000893346 17.2659C0.0122433 16.6512 0.138153 15.8952 0.260543 15.1603L0.641283 12.8697C0.774013 12.0711 0.840373 11.6718 1.12016 11.4347C1.39995 11.1976 1.80471 11.1976 2.61421 11.1976H10.1169C10.6692 11.1976 11.1169 10.7499 11.1169 10.1976C11.1169 9.64527 10.6692 9.19757 10.1169 9.19757H2.61977C1.81095 9.19757 1.40654 9.19757 1.12684 8.96077C0.847143 8.72387 0.780473 8.32507 0.647143 7.52727L0.263193 5.23006C0.140313 4.49641 0.0138634 3.74136 0.0019834 3.12715C-0.0103966 2.48658 0.0804234 1.32203 1.12523 0.540288C2.17003 -0.241442 3.31289 5.78165e-05 3.92393 0.192708C4.50982 0.377428 5.19849 0.711818 5.86765 1.03673L15.5679 5.74268Z" fill="#F5F5F5"/>
</svg>
